<svg xmlns="http://www.w3.org/2000/svg" width="64" height="64" viewBox="0 0 25.483 31.125" fill="none">
  <defs>
    <linearGradient id="baro-grad" x1="0" y1="0" x2="1" y2="1">
      <stop offset="0%" stop-color="#3AE9A1"></stop><stop offset="100%" stop-color="#00AF67"></stop>
    </linearGradient>
  </defs>
  <path d="M 3.07 1.279 C 6.043 -0.754 9.878 -0.316 11.637 2.256 C 12.547 3.587 12.721 5.229 12.266 6.786 L 10.713 12.952 C 12.186 12.051 13.919 11.532 15.772 11.532 C 21.135 11.532 25.483 15.879 25.483 21.242 C 25.483 23.65 24.604 25.853 23.152 27.55 C 20.312 31.317 16.734 31.974 10.092 30.145 C 9.047 29.858 8.118 29.371 7.322 28.739 C 6.243 29.067 4.975 29.126 3.54 28.959 C 3.529 28.957 0.749 28.542 1.876 26.003 C 2.941 23.602 4.038 21.077 4.761 18.274 L 6.098 11.836 C 4.018 12.05 2.011 11.281 0.873 9.617 C -0.886 7.045 0.098 3.312 3.07 1.279 Z M 16.312 15.517 C 13.4 15.517 11.04 17.943 11.04 20.935 C 11.04 23.928 13.4 26.353 16.312 26.353 C 19.224 26.353 21.586 23.928 21.586 20.935 C 21.586 17.943 19.224 15.517 16.312 15.517 Z" fill="url(#baro-grad)" fill-rule="nonzero"></path>
  <circle cx="4.6" cy="7" r="1.0" fill="#1a1a1a"></circle>
</svg>