<svg width="44" height="44" viewBox="0 0 44 44" fill="none" xmlns="http://www.w3.org/2000/svg">
<rect width="44" height="44" rx="22" fill="#464646"/>
<mask id="mask0_37_374" style="mask-type:alpha" maskUnits="userSpaceOnUse" x="0" y="0" width="44" height="44">
<circle cx="22" cy="22" r="22" fill="#D9D9D9"/>
</mask>
<g mask="url(#mask0_37_374)">
<path d="M16.6872 36.0339C16.2529 33.954 14.1861 32.2238 11.8062 30.4663L2.6789 32.2238C4.26069 33.5421 3.94228 35.6974 1.90746 36.013C1.63634 36.0551 1.37046 36.097 1.11867 36.1415C-0.178334 36.3713 0.0159238 37.4597 0.469768 37.7672C1.0622 38.1685 1.48297 38.3892 2.53806 38.3892C5.01276 38.3892 10.6727 38.4183 13.7503 38.3892C16.0735 38.3415 16.7051 36.7285 16.6872 36.0339Z" fill="url(#paint0_linear_37_374)"/>
<path d="M19.2233 18.889L18.4938 31.1705L2.60739 32.8708L-13.6491 31.7109C-15.153 19.344 -5.75281 13.2149 0.545197 12.1824C10.0078 10.6312 16.9118 15.7262 19.2233 18.889Z" fill="url(#paint1_radial_37_374)"/>
<path d="M20.6068 32.153C20.0119 31.5854 19.3003 31.0272 18.4595 30.4663L8.35619 32.2238C10.0541 33.5022 9.74883 35.7452 7.63143 35.9295C7.17592 35.9692 6.7025 36.0024 6.22507 36.0339C3.65731 36.2037 4.36308 37.4204 4.99806 37.7776C5.40423 38.0061 5.99819 38.2802 7.27639 38.3659C10.7973 38.6021 16.0422 38.4183 19.4489 38.3892C22.5052 38.3326 22.8183 34.2634 20.6068 32.153Z" fill="url(#paint2_linear_37_374)"/>
<path d="M-14.8077 31.8558C-14.8006 31.1944 -14.2133 30.6902 -13.5584 30.7833L-3.84362 32.1638C-2.10906 32.4103 -0.345647 32.3676 1.37498 32.0377L19.7021 28.5229C20.2908 28.4099 20.8756 28.7363 21.0886 29.2967C21.3621 30.0163 20.9176 30.808 20.1608 30.949L2.69335 34.2044C0.514508 34.6105 -1.71579 34.6602 -3.91057 34.3517L-13.865 32.9523C-14.4101 32.8757 -14.8137 32.4063 -14.8077 31.8558Z" fill="url(#paint3_linear_37_374)"/>
<path d="M26.0278 14.4886C23.4994 18.4186 20.9609 18.8846 19.0604 18.704C15.749 24.4128 17.9258 29.407 19.3531 31.0154C25.3784 31.0154 30.1502 30.382 33.6259 27.9708C39.2431 24.074 39.0904 19.8761 37.8074 16.8979C36.6848 14.2921 34.2275 12.214 31.3909 12.1509C28.7164 12.0914 26.6744 13.4834 26.0278 14.4886Z" fill="url(#paint4_radial_37_374)"/>
<rect x="34.1138" y="20.121" width="1.37736" height="0.528465" rx="0.264232" fill="black"/>
</g>
<defs>
<linearGradient id="paint0_linear_37_374" x1="1.93042" y1="37.953" x2="17.2313" y2="31.947" gradientUnits="userSpaceOnUse">
<stop offset="0.0494489" stop-color="#50E89F"/>
<stop offset="1" stop-color="#007943"/>
</linearGradient>
<radialGradient id="paint1_radial_37_374" cx="0" cy="0" r="1" gradientUnits="userSpaceOnUse" gradientTransform="translate(10.367 16.4817) rotate(111.294) scale(31.4259 32.4129)">
<stop offset="0.0561283" stop-color="#00DE83"/>
<stop offset="0.273203" stop-color="#00C776"/>
<stop offset="0.620357" stop-color="#04975E"/>
</radialGradient>
<linearGradient id="paint2_linear_37_374" x1="12.2615" y1="38.4848" x2="15.0816" y2="30.4663" gradientUnits="userSpaceOnUse">
<stop stop-color="#7EFAB7"/>
<stop offset="1" stop-color="#0CE48D"/>
</linearGradient>
<linearGradient id="paint3_linear_37_374" x1="-14.8103" y1="32.0937" x2="21.4279" y2="28.8549" gradientUnits="userSpaceOnUse">
<stop stop-color="#92EACA"/>
<stop offset="1" stop-color="#D6F7EB"/>
</linearGradient>
<radialGradient id="paint4_radial_37_374" cx="0" cy="0" r="1" gradientUnits="userSpaceOnUse" gradientTransform="translate(33.4232 15.1131) rotate(134.332) scale(25.7886 23.6547)">
<stop stop-color="#B8FFD9"/>
<stop offset="0.356137" stop-color="#7EFAB7"/>
<stop offset="0.800008" stop-color="#00C775"/>
</radialGradient>
</defs>
</svg>
