<svg xmlns="http://www.w3.org/2000/svg" width="64" height="64" viewBox="0 0 64 64" fill="none">
  <defs>
    <linearGradient id="stage4-shirt" x1="0" y1="0" x2="1" y2="1">
      <stop offset="0%" stop-color="#3AE9A1"/>
      <stop offset="100%" stop-color="#00A85E"/>
    </linearGradient>
  </defs>
  <!-- cane -->
  <line x1="50" y1="46" x2="50" y2="60" stroke="#B0B5BB" stroke-width="3" stroke-linecap="round"/>
  <!-- back leg -->
  <path d="M34 40 L38 60 L46 60 L40 42 Z" fill="#6B7178"/>
  <!-- front leg -->
  <path d="M24 40 L20 60 L28 60 L30 42 Z" fill="#9AA0A6"/>
  <!-- shoes -->
  <ellipse cx="22" cy="61" rx="5" ry="3" fill="#1a1a1a"/>
  <ellipse cx="42" cy="61" rx="5" ry="3" fill="#1a1a1a"/>
  <!-- body / shirt (hunched) -->
  <path d="M21 24 Q33 16 44 24 L46 40 Q33 47 19 40 Z" fill="url(#stage4-shirt)"/>
  <!-- arm to cane -->
  <path d="M41 27 L50 44" stroke="#FFD9C4" stroke-width="5" stroke-linecap="round"/>
  <circle cx="50" cy="45" r="4" fill="#FFD9C4"/>
  <!-- head -->
  <circle cx="33" cy="13" r="8" fill="#FFD9C4"/>
  <!-- hair -->
  <path d="M25 11 Q33 2 41 11 Q41 15 38 14 Q36 7 28 8 Q25 9 25 14 Z" fill="#1a1a1a"/>
</svg>
