<svg width="48" height="48" viewBox="0 0 48 48" fill="none" xmlns="http://www.w3.org/2000/svg">
<rect width="48" height="48" rx="8" fill="#022C1F"/>
<path d="M36.3378 36.138C35.5969 35.905 34.581 35.3836 33.3013 33.9088L30.5975 38.1833C31.8336 38.9397 35.6035 38.5417 36.8312 37.1478C37.1694 36.7637 36.826 36.2916 36.3378 36.138Z" fill="url(#paint0_linear_329_2762)"/>
<path d="M13.527 9.27883C16.4995 7.24615 20.3353 7.68329 22.0944 10.2554C23.0045 11.5868 23.178 13.2292 22.7233 14.7857L21.1696 20.9517C22.6429 20.0506 24.3757 19.5318 26.2292 19.5318C31.5918 19.5321 35.9398 23.879 35.9401 29.2417C35.94 31.65 35.0608 33.8524 33.6091 35.5493C30.7694 39.3166 27.1911 39.9736 20.5485 38.145C19.504 37.8574 18.5746 37.3712 17.779 36.7388C16.6999 37.0668 15.4324 37.1257 13.9968 36.9585C13.9862 36.957 11.2061 36.5416 12.3327 34.0025C13.3979 31.6022 14.4945 29.0765 15.2184 26.2739L16.5553 19.8355C14.4752 20.0493 12.4679 19.2804 11.3298 17.6167C9.57064 15.0446 10.5546 11.3117 13.527 9.27883ZM26.7692 23.5171C23.8571 23.5173 21.4968 25.9429 21.4968 28.9351C21.4968 31.9273 23.8571 34.3529 26.7692 34.353C29.6815 34.353 32.0427 31.9274 32.0427 28.9351C32.0426 25.9428 29.6814 23.5171 26.7692 23.5171Z" fill="#00C775"/>
<rect x="15.7943" y="14.9101" width="1.06205" height="1.71117" rx="0.531027" fill="black"/>
<rect x="12.5507" y="13.4377" width="0.822669" height="1.47239" rx="0.411335" fill="black"/>
<path d="M26.6305 18.7489C32.0285 18.7489 36.4047 23.2455 36.4049 28.7919C36.4049 30.7634 35.8522 32.6028 34.8971 34.1542C34.8971 34.1542 32.8203 34.1534 29.9478 33.2577C31.22 32.2686 32.0425 30.701 32.0426 28.9355C32.0426 25.9431 29.6814 23.5175 26.7691 23.5175C24.103 23.5177 21.8997 25.5506 21.5465 28.1903C19.2233 25.7244 18.4042 23.3851 18.4 23.373C20.1381 20.5919 23.1749 18.749 26.6305 18.7489Z" fill="url(#paint1_linear_329_2762)"/>
<path d="M30.5867 32.6693C32.1649 33.0092 33.8905 33.1059 35.7566 32.8617C36.1946 32.8046 36.5958 33.1132 36.6531 33.5512C36.7101 33.9891 36.4016 34.3904 35.9637 34.4477C33.3615 34.7881 31.0048 34.526 28.9139 33.8842C29.5476 33.5938 30.1145 33.1788 30.5867 32.6693ZM18.1219 21.9857C18.5525 21.8873 18.9822 22.1568 19.0808 22.5873C19.3217 23.6404 20.2258 25.4229 21.7644 27.225C21.5906 27.7626 21.4959 28.3374 21.4959 28.935C21.4959 29.0604 21.5014 29.1847 21.5096 29.308C19.2662 27.0374 17.8843 24.5361 17.5203 22.9447C17.4219 22.5142 17.6914 22.0844 18.1219 21.9857Z" fill="url(#paint2_linear_329_2762)"/>
<path d="M27.3342 18.778C27.7983 18.8119 28.2536 18.878 28.6975 18.9762V20.5641L30.2199 21.443L31.8576 20.4987L32.2082 20.7008V20.5465C33.2298 21.2775 34.1092 22.2032 34.7951 23.2721V25.442L36.0666 26.1764C36.2852 27.0107 36.4045 27.8874 36.4045 28.7926C36.4045 29.1696 36.3833 29.5417 36.344 29.9079L33.5627 31.5133L31.8166 30.5045C31.9149 30.1703 31.982 29.8226 32.0158 29.4645L33.5627 30.358L35.5002 29.2399V27.0036L33.9192 26.0905L32.0588 27.1647V29.1588L32.0364 29.1715C32.0396 29.0932 32.0422 29.0144 32.0422 28.9352C32.0422 26.7304 30.7606 24.8339 28.9211 23.9879V22.2623L27.4543 21.4166L25.9446 22.2877V23.5836C25.4506 23.6634 24.9796 23.8137 24.5412 24.0241V21.6911L22.8235 20.6998V20.5827L21.0715 21.5944V23.8307L23.008 24.9489L23.592 24.611C23.1629 24.9444 22.7854 25.344 22.4729 25.7946L20.0715 24.4088V21.3463C21.1354 20.3564 22.4125 19.6035 23.8235 19.1696V19.7926L25.7092 20.8815L27.3342 19.943V18.778ZM30.4153 22.9586V24.818L31.9133 25.6832L33.5627 24.7311L33.7951 24.8649V22.7711L32.2678 21.8893L30.4153 22.9586Z" fill="url(#paint3_linear_329_2762)"/>
<defs>
<linearGradient id="paint0_linear_329_2762" x1="35.5625" y1="38.2249" x2="31.904" y2="36.1036" gradientUnits="userSpaceOnUse">
<stop stop-color="#00C775"/>
<stop offset="1" stop-color="#03794E"/>
</linearGradient>
<linearGradient id="paint1_linear_329_2762" x1="33.685" y1="20.1461" x2="21.697" y2="37.0527" gradientUnits="userSpaceOnUse">
<stop offset="0.214117" stop-color="#00C775"/>
<stop offset="0.656486" stop-color="#3AE9A1"/>
</linearGradient>
<linearGradient id="paint2_linear_329_2762" x1="13.54" y1="19.2854" x2="30.0359" y2="43.2444" gradientUnits="userSpaceOnUse">
<stop stop-color="#24FFA5"/>
<stop offset="0.429418" stop-color="#00C775"/>
</linearGradient>
<linearGradient id="paint3_linear_329_2762" x1="33.6861" y1="20.148" x2="21.6985" y2="37.0544" gradientUnits="userSpaceOnUse">
<stop offset="0.117871" stop-color="#00AF67"/>
<stop offset="0.575387" stop-color="#3AE9A1"/>
</linearGradient>
</defs>
</svg>
