<svg xmlns="http://www.w3.org/2000/svg" width="19.198" height="23.228" viewBox="0 0 19.198 23.228" fill="none">
  <path d="M 8.526 0 C 10.405 1.123 13.659 4.129 12.69 9.108 C 12.457 10.301 13.184 11.717 14.414 11.581 C 15.346 11.368 16.096 10.829 16.096 7.793 C 19.571 11.22 21.339 19.031 14.749 22.679 C 14.377 22.885 13.992 23.067 13.599 23.228 C 14.76 22.128 15.966 20.123 14.971 17.005 C 14.715 17.571 14.006 18.552 13.001 18.489 C 12.27 18.443 11.488 18.413 10.888 17.528 C 10.589 17.087 10.115 16.229 10.282 15.054 C 10.449 13.878 10.437 12.009 9.45 10.88 C 9.427 10.936 9.402 10.994 9.377 11.054 C 8.405 13.335 6.197 15.282 5.296 17.488 C 4.712 16.975 4.523 15.922 4.265 14.893 C 2.775 18.331 3.55 21.274 4.684 22.794 C 2.854 21.777 1.234 20.193 0.568 17.918 C -0.313 15.453 -0.808 9.282 4.101 4.918 C 3.862 5.787 3.831 7.222 4.102 8.532 C 5.867 6.483 7.711 4.009 8.526 0 Z" fill="currentColor" fill-rule="nonzero"></path>
</svg>