<svg xmlns="http://www.w3.org/2000/svg" width="33.705" height="31.019" viewBox="0 0 33.705 31.019" fill="none">
  <path d="M 11.327 29.904 C 9.609 29.16 8.111 28.149 6.833 26.872 C 5.556 25.594 4.545 24.096 3.801 22.378 C 3.058 20.66 2.686 18.818 2.686 16.853 C 2.686 14.887 3.058 13.045 3.801 11.327 C 4.545 9.609 5.556 8.111 6.833 6.833 C 8.111 5.556 9.609 4.545 11.327 3.801 C 13.045 3.058 14.887 2.686 16.853 2.686 C 18.818 2.686 20.66 3.058 22.378 3.801 C 24.096 4.545 25.594 5.556 26.872 6.833 C 28.149 8.111 29.16 9.609 29.904 11.327 C 30.647 13.045 31.019 14.887 31.019 16.853 C 31.019 18.818 30.647 20.66 29.904 22.378 C 29.16 24.096 28.149 25.594 26.872 26.872 C 25.594 28.149 24.096 29.16 22.378 29.904 C 20.66 30.647 18.818 31.019 16.853 31.019 C 14.887 31.019 13.045 30.647 11.327 29.904 Z M 21.808 23.564 L 23.564 21.808 L 18.103 16.346 L 18.103 8.519 L 15.603 8.519 L 15.603 17.359 L 21.808 23.564 Z M 6.442 0 L 8.199 1.756 L 1.756 8.199 L 0 6.442 L 6.442 0 Z M 27.263 0 L 33.705 6.442 L 31.949 8.199 L 25.506 1.756 L 27.263 0 Z M 16.853 28.519 C 20.092 28.519 22.846 27.385 25.115 25.115 C 27.385 22.846 28.519 20.092 28.519 16.853 C 28.519 13.613 27.385 10.859 25.115 8.59 C 22.846 6.32 20.092 5.186 16.853 5.186 C 13.613 5.186 10.859 6.32 8.59 8.59 C 6.32 10.859 5.186 13.613 5.186 16.853 C 5.186 20.092 6.32 22.846 8.59 25.115 C 10.859 27.385 13.613 28.519 16.853 28.519 Z" fill="currentColor" fill-rule="nonzero"></path>
</svg>