<svg xmlns="http://www.w3.org/2000/svg" width="19" height="19.440" viewBox="0 0 19 19.440" fill="none">
  <path d="M 3.75 11.797 L 11.25 11.797 L 11.25 10.224 L 3.75 10.224 L 3.75 11.797 Z M 3.75 8.651 L 15.25 8.651 L 15.25 7.078 L 3.75 7.078 L 3.75 8.651 Z M 3.75 5.505 L 15.25 5.505 L 15.25 3.932 L 3.75 3.932 L 3.75 5.505 Z M 0 19.44 L 0 1.896 C 0 1.366 0.175 0.918 0.525 0.551 C 0.875 0.184 1.303 0 1.808 0 L 17.192 0 C 17.697 0 18.125 0.184 18.475 0.551 C 18.825 0.918 19 1.366 19 1.896 L 19 13.833 C 19 14.363 18.825 14.812 18.475 15.179 C 18.125 15.546 17.697 15.729 17.192 15.729 L 3.538 15.729 L 0 19.44 Z M 2.9 14.156 L 17.192 14.156 C 17.269 14.156 17.34 14.123 17.404 14.055 C 17.468 13.988 17.5 13.914 17.5 13.833 L 17.5 1.896 C 17.5 1.815 17.468 1.741 17.404 1.674 C 17.34 1.607 17.269 1.573 17.192 1.573 L 1.808 1.573 C 1.731 1.573 1.66 1.607 1.596 1.674 C 1.532 1.741 1.5 1.815 1.5 1.896 L 1.5 15.608 L 2.9 14.156 Z" fill="currentColor" fill-rule="nonzero"></path>
</svg>