<svg xmlns="http://www.w3.org/2000/svg" width="34.972" height="36.364" viewBox="0 0 34.972 36.364" fill="none">
  <path d="M 10.582 6.526 L 9.062 1.98 L 10.932 1.369 L 12.452 5.888 L 10.582 6.526 Z M 16.483 4.53 L 16.483 0 L 18.489 0 L 18.489 4.53 L 16.483 4.53 Z M 24.39 6.526 L 22.52 5.888 L 24.041 1.369 L 25.911 2.006 L 24.39 6.526 Z M 1.288 36.347 L 0.912 33.85 L 9.786 32.488 C 10.18 32.419 10.528 32.256 10.832 31.998 C 11.136 31.74 11.349 31.419 11.472 31.035 L 12.886 26.577 C 13.058 26.077 13.05 25.59 12.862 25.118 C 12.673 24.646 12.342 24.295 11.87 24.066 L 10.385 28.732 L 7.981 27.965 L 11.795 15.949 C 11.884 15.663 11.904 15.373 11.856 15.079 C 11.807 14.786 11.685 14.555 11.488 14.387 L 5.432 25.859 C 5.026 26.607 4.457 27.205 3.722 27.653 C 2.988 28.1 2.196 28.324 1.346 28.324 L 0 28.324 L 0 25.801 L 1.346 25.801 C 1.73 25.801 2.089 25.704 2.424 25.51 C 2.759 25.317 3.014 25.043 3.19 24.691 L 10.618 10.611 L 12.332 11.579 C 13.219 12.092 13.834 12.833 14.177 13.8 C 14.52 14.767 14.536 15.745 14.225 16.733 L 12.646 21.679 C 13.772 22.123 14.584 22.894 15.083 23.992 C 15.581 25.09 15.65 26.216 15.29 27.37 L 13.86 31.828 C 13.583 32.66 13.115 33.362 12.454 33.934 C 11.793 34.505 11.029 34.856 10.162 34.985 L 1.288 36.347 Z M 33.685 36.364 L 24.81 35.001 C 23.944 34.872 23.179 34.522 22.518 33.95 C 21.857 33.379 21.389 32.677 21.113 31.844 L 19.683 27.386 C 19.323 26.232 19.392 25.106 19.89 24.008 C 20.388 22.911 21.2 22.14 22.326 21.695 L 20.747 16.749 C 20.437 15.761 20.453 14.783 20.796 13.816 C 21.139 12.849 21.753 12.108 22.64 11.595 L 24.355 10.628 L 31.782 24.707 C 31.958 25.06 32.213 25.333 32.547 25.526 C 32.88 25.72 33.24 25.817 33.627 25.817 L 34.972 25.817 L 34.972 28.34 L 33.627 28.34 C 32.777 28.34 31.985 28.117 31.25 27.669 C 30.516 27.222 29.946 26.624 29.54 25.875 L 23.484 14.403 C 23.288 14.571 23.165 14.802 23.117 15.096 C 23.068 15.389 23.088 15.679 23.177 15.966 L 26.991 27.981 L 24.588 28.748 L 23.103 24.083 C 22.63 24.311 22.3 24.662 22.111 25.134 C 21.922 25.607 21.914 26.093 22.086 26.593 L 23.5 31.051 C 23.623 31.435 23.837 31.756 24.141 32.014 C 24.444 32.272 24.793 32.435 25.186 32.504 L 34.06 33.866 L 33.685 36.364 Z" fill="currentColor" fill-rule="nonzero"></path>
</svg>