<svg xmlns="http://www.w3.org/2000/svg" width="28.333" height="31.859" viewBox="0 0 28.333 31.859" fill="none">
  <path d="M 3.013 31.859 C 2.171 31.859 1.458 31.567 0.875 30.984 C 0.292 30.4 0 29.688 0 28.846 L 0 6.538 C 0 5.696 0.292 4.984 0.875 4.4 C 1.458 3.817 2.171 3.525 3.013 3.525 L 5.32 3.525 L 5.32 0 L 7.885 0 L 7.885 3.525 L 20.513 3.525 L 20.513 0 L 23.013 0 L 23.013 3.525 L 25.32 3.525 C 26.162 3.525 26.875 3.817 27.458 4.4 C 28.042 4.984 28.333 5.696 28.333 6.538 L 28.333 28.846 C 28.333 29.688 28.042 30.4 27.458 30.984 C 26.875 31.567 26.162 31.859 25.32 31.859 L 3.013 31.859 Z M 3.013 29.359 L 25.32 29.359 C 25.449 29.359 25.566 29.305 25.673 29.198 C 25.78 29.092 25.833 28.974 25.833 28.846 L 25.833 13.205 L 2.5 13.205 L 2.5 28.846 C 2.5 28.974 2.553 29.092 2.66 29.198 C 2.767 29.305 2.885 29.359 3.013 29.359 Z M 2.5 10.705 L 25.833 10.705 L 25.833 6.538 C 25.833 6.41 25.78 6.292 25.673 6.186 C 25.566 6.079 25.449 6.025 25.32 6.025 L 3.013 6.025 C 2.885 6.025 2.767 6.079 2.66 6.186 C 2.553 6.292 2.5 6.41 2.5 6.538 L 2.5 10.705 Z M 6.25 18.942 L 6.25 16.442 L 22.083 16.442 L 22.083 18.942 L 6.25 18.942 Z M 6.25 25.609 L 6.25 23.109 L 17.083 23.109 L 17.083 25.609 L 6.25 25.609 Z" fill="currentColor" fill-rule="nonzero"></path>
</svg>