<svg xmlns="http://www.w3.org/2000/svg" width="19" height="18.012" viewBox="0 0 19 18.012" fill="none">
  <path d="M 9.5 18.012 L 8.396 16.971 C 6.739 15.394 5.368 14.039 4.284 12.906 C 3.2 11.773 2.341 10.764 1.707 9.88 C 1.073 8.996 0.63 8.19 0.378 7.461 C 0.126 6.732 0 5.993 0 5.243 C 0 3.755 0.479 2.509 1.436 1.505 C 2.393 0.502 3.581 0 5 0 C 5.873 0 6.698 0.214 7.475 0.642 C 8.252 1.07 8.927 1.684 9.5 2.484 C 10.073 1.684 10.748 1.07 11.525 0.642 C 12.302 0.214 13.127 0 14 0 C 15.419 0 16.607 0.502 17.565 1.505 C 18.522 2.509 19 3.755 19 5.243 C 19 5.993 18.874 6.732 18.622 7.461 C 18.37 8.19 17.927 8.996 17.293 9.88 C 16.659 10.764 15.802 11.773 14.721 12.906 C 13.64 14.039 12.268 15.394 10.604 16.971 L 9.5 18.012 Z M 9.5 15.886 C 11.1 14.377 12.417 13.083 13.45 12.004 C 14.483 10.926 15.3 9.99 15.9 9.194 C 16.5 8.399 16.917 7.693 17.15 7.076 C 17.383 6.459 17.5 5.848 17.5 5.243 C 17.5 4.194 17.167 3.321 16.5 2.622 C 15.833 1.922 15 1.573 14 1.573 C 13.21 1.573 12.481 1.808 11.811 2.278 C 11.141 2.748 10.61 3.401 10.219 4.239 L 8.781 4.239 C 8.383 3.394 7.851 2.739 7.185 2.273 C 6.518 1.806 5.79 1.573 5 1.573 C 4.006 1.573 3.175 1.922 2.505 2.622 C 1.835 3.321 1.5 4.194 1.5 5.243 C 1.5 5.848 1.617 6.459 1.85 7.076 C 2.083 7.693 2.5 8.399 3.1 9.194 C 3.7 9.99 4.517 10.925 5.55 11.999 C 6.583 13.074 7.9 14.37 9.5 15.886 Z" fill="currentColor" fill-rule="nonzero"></path>
</svg>