<svg xmlns="http://www.w3.org/2000/svg" width="16.875" height="21.591" viewBox="0 0 16.875 21.591" fill="none">
  <path d="M 0 18.433 L 0 16.745 L 2.034 16.745 L 2.034 8.351 C 2.034 6.838 2.501 5.5 3.435 4.338 C 4.368 3.175 5.567 2.432 7.031 2.107 L 7.031 1.406 C 7.031 1.016 7.168 0.684 7.441 0.41 C 7.714 0.137 8.046 0 8.436 0 C 8.826 0 9.159 0.137 9.433 0.41 C 9.707 0.684 9.844 1.016 9.844 1.406 L 9.844 2.107 C 11.308 2.432 12.507 3.175 13.44 4.338 C 14.374 5.5 14.841 6.838 14.841 8.351 L 14.841 16.745 L 16.875 16.745 L 16.875 18.433 L 0 18.433 Z M 8.436 21.591 C 7.876 21.591 7.397 21.392 7 20.994 C 6.603 20.596 6.404 20.117 6.404 19.558 L 10.471 19.558 C 10.471 20.119 10.272 20.598 9.873 20.995 C 9.475 21.393 8.995 21.591 8.436 21.591 Z M 3.721 16.745 L 13.154 16.745 L 13.154 8.351 C 13.154 7.049 12.693 5.937 11.773 5.016 C 10.852 4.095 9.74 3.635 8.438 3.635 C 7.135 3.635 6.023 4.095 5.102 5.016 C 4.182 5.937 3.721 7.049 3.721 8.351 L 3.721 16.745 Z" fill="currentColor" fill-rule="nonzero"></path>
</svg>