<svg xmlns="http://www.w3.org/2000/svg" width="16" height="16" viewBox="0 0 16 16" fill="none">
  <path d="M 2.087 13.297 L 2.087 12.08 L 3.618 12.08 L 3.618 6.024 C 3.618 5.645 3.666 5.269 3.761 4.895 C 3.857 4.522 4 4.166 4.191 3.827 L 5.152 4.748 C 5.064 4.954 4.998 5.163 4.954 5.376 C 4.91 5.589 4.888 5.805 4.888 6.024 L 4.888 12.08 L 11.05 12.08 L 0 1.52 L 0.892 0.665 L 16 15.145 L 15.108 16 L 12.261 13.297 L 2.087 13.297 Z M 13.258 10.188 L 11.988 8.971 L 11.988 6.024 C 11.988 5.085 11.641 4.283 10.948 3.619 C 10.255 2.954 9.418 2.622 8.438 2.622 C 8.02 2.622 7.617 2.688 7.231 2.819 C 6.845 2.951 6.497 3.148 6.188 3.412 L 5.269 2.531 C 5.568 2.284 5.894 2.072 6.249 1.897 C 6.603 1.722 6.98 1.596 7.38 1.52 L 7.38 1.014 C 7.38 0.733 7.482 0.493 7.688 0.296 C 7.894 0.099 8.143 0 8.437 0 C 8.731 0 8.981 0.099 9.187 0.296 C 9.393 0.493 9.496 0.733 9.496 1.014 L 9.496 1.52 C 10.604 1.744 11.507 2.276 12.208 3.117 C 12.908 3.959 13.258 4.928 13.258 6.024 L 13.258 10.188 Z M 8.436 15.576 C 8.015 15.576 7.655 15.432 7.356 15.145 C 7.057 14.857 6.907 14.512 6.907 14.108 L 9.969 14.108 C 9.969 14.513 9.819 14.859 9.519 15.146 C 9.219 15.432 8.858 15.576 8.436 15.576 Z" fill="currentColor" fill-rule="nonzero"></path>
</svg>