<svg xmlns="http://www.w3.org/2000/svg" width="16.875" height="16.442" viewBox="0 0 16.875 16.442" fill="none">
  <path d="M 5.654 6.721 C 4.885 5.951 4.5 5.024 4.5 3.938 C 4.5 2.852 4.885 1.924 5.654 1.154 C 6.424 0.385 7.352 0 8.438 0 C 9.524 0 10.451 0.385 11.221 1.154 C 11.99 1.924 12.375 2.852 12.375 3.938 C 12.375 5.024 11.99 5.951 11.221 6.721 C 10.451 7.49 9.524 7.875 8.438 7.875 C 7.352 7.875 6.424 7.49 5.654 6.721 Z M 0 16.442 L 0 13.941 C 0 13.39 0.15 12.88 0.449 12.411 C 0.748 11.941 1.148 11.58 1.649 11.328 C 2.761 10.783 3.882 10.374 5.014 10.101 C 6.145 9.829 7.287 9.692 8.438 9.692 C 9.588 9.692 10.73 9.829 11.861 10.101 C 12.993 10.374 14.114 10.783 15.226 11.328 C 15.727 11.58 16.127 11.941 16.426 12.411 C 16.725 12.88 16.875 13.39 16.875 13.941 L 16.875 16.442 L 0 16.442 Z M 1.688 14.755 L 15.188 14.755 L 15.188 13.941 C 15.188 13.713 15.122 13.503 14.99 13.308 C 14.858 13.115 14.678 12.956 14.452 12.834 C 13.483 12.356 12.494 11.995 11.487 11.749 C 10.48 11.503 9.463 11.38 8.438 11.38 C 7.412 11.38 6.395 11.503 5.388 11.749 C 4.381 11.995 3.392 12.356 2.423 12.834 C 2.197 12.956 2.017 13.115 1.885 13.308 C 1.753 13.503 1.688 13.713 1.688 13.941 L 1.688 14.755 Z M 10.027 5.527 C 10.467 5.086 10.688 4.556 10.688 3.938 C 10.688 3.319 10.467 2.789 10.027 2.348 C 9.586 1.908 9.056 1.688 8.438 1.688 C 7.819 1.688 7.289 1.908 6.848 2.348 C 6.408 2.789 6.188 3.319 6.188 3.938 C 6.188 4.556 6.408 5.086 6.848 5.527 C 7.289 5.967 7.819 6.188 8.438 6.188 C 9.056 6.188 9.586 5.967 10.027 5.527 Z" fill="currentColor" fill-rule="nonzero"></path>
</svg>