<svg xmlns="http://www.w3.org/2000/svg" width="180" height="180" viewBox="0 0 180 180" fill="none">
  <path d="M 114.01 18.673 C 112.49 17.146 111.73 15.277 111.73 13.065 C 111.73 10.855 112.493 8.99 114.02 7.47 C 115.547 5.952 117.415 5.193 119.625 5.193 C 121.837 5.193 123.702 5.956 125.22 7.482 C 126.74 9.009 127.5 10.877 127.5 13.087 C 127.5 15.299 126.737 17.164 125.21 18.682 C 123.683 20.202 121.815 20.962 119.605 20.962 C 117.393 20.962 115.528 20.199 114.01 18.673 Z M 113.432 172.518 C 111.914 170.991 111.155 169.123 111.155 166.913 C 111.155 164.701 111.918 162.836 113.443 161.318 C 114.969 159.798 116.838 159.038 119.05 159.038 C 121.26 159.038 123.125 159.801 124.645 161.327 C 126.163 162.854 126.923 164.723 126.923 166.935 C 126.923 169.145 126.159 171.01 124.633 172.53 C 123.108 174.048 121.239 174.807 119.027 174.807 C 116.817 174.807 114.952 174.044 113.432 172.518 Z M 153.432 51.365 C 151.914 49.838 151.155 47.969 151.155 45.758 C 151.155 43.548 151.918 41.683 153.443 40.163 C 154.969 38.644 156.838 37.885 159.05 37.885 C 161.26 37.885 163.125 38.648 164.645 40.175 C 166.163 41.702 166.923 43.57 166.923 45.78 C 166.923 47.99 166.159 49.855 164.633 51.375 C 163.108 52.895 161.239 53.655 159.027 53.655 C 156.818 53.655 154.952 52.892 153.432 51.365 Z M 152.855 140.402 C 151.337 138.876 150.577 137.008 150.577 134.798 C 150.577 132.586 151.341 130.721 152.867 129.202 C 154.394 127.683 156.263 126.923 158.473 126.923 C 160.683 126.923 162.548 127.686 164.068 129.212 C 165.586 130.739 166.345 132.607 166.345 134.818 C 166.345 137.029 165.583 138.894 164.057 140.413 C 162.531 141.933 160.662 142.693 158.45 142.693 C 156.24 142.693 154.375 141.929 152.855 140.402 Z M 166.51 95.595 C 164.99 94.068 164.23 92.2 164.23 89.99 C 164.23 87.778 164.993 85.913 166.52 84.395 C 168.047 82.875 169.916 82.115 172.128 82.115 C 174.338 82.115 176.202 82.878 177.72 84.405 C 179.24 85.932 180 87.8 180 90.01 C 180 92.222 179.237 94.087 177.71 95.605 C 176.183 97.125 174.315 97.885 172.105 97.885 C 169.893 97.885 168.028 97.122 166.51 95.595 Z M 90 180 C 77.577 180 65.887 177.638 54.93 172.915 C 43.975 168.192 34.445 161.782 26.34 153.685 C 18.235 145.588 11.819 136.067 7.092 125.12 C 2.364 114.175 0 102.479 0 90.033 C 0 77.588 2.363 65.887 7.088 54.93 C 11.813 43.975 18.225 34.445 26.325 26.34 C 34.425 18.235 43.95 11.819 54.9 7.092 C 65.85 2.364 77.55 0 90 0 L 90 10 C 67.667 10 48.75 17.75 33.25 33.25 C 17.75 48.75 10 67.667 10 90 C 10 112.333 17.75 131.25 33.25 146.75 C 48.75 162.25 67.667 170 90 170 L 90 180 Z M 123 129.885 L 85 91.885 L 85 45 L 95 45 L 95 88.115 L 129.885 123 L 123 129.885 Z" fill="currentColor" fill-rule="nonzero"></path>
  <path d="M 114.01 18.673 L 114.028 18.655 L 114.028 18.655 L 114.01 18.673 Z M 114.02 7.47 L 114.002 7.452 L 114.002 7.452 L 114.02 7.47 Z M 125.22 7.482 L 125.202 7.5 L 125.202 7.5 L 125.22 7.482 Z M 125.21 18.682 L 125.192 18.665 L 125.192 18.665 L 125.21 18.682 Z M 113.432 172.518 L 113.415 172.535 L 113.415 172.535 L 113.432 172.518 Z M 113.443 161.318 L 113.46 161.335 L 113.46 161.335 L 113.443 161.318 Z M 124.645 161.327 L 124.663 161.31 L 124.663 161.31 L 124.645 161.327 Z M 124.633 172.53 L 124.65 172.548 L 124.65 172.548 L 124.633 172.53 Z M 153.432 51.365 L 153.415 51.383 L 153.415 51.383 L 153.432 51.365 Z M 153.443 40.163 L 153.425 40.145 L 153.425 40.145 L 153.443 40.163 Z M 164.645 40.175 L 164.663 40.157 L 164.663 40.157 L 164.645 40.175 Z M 164.633 51.375 L 164.615 51.357 L 164.615 51.357 L 164.633 51.375 Z M 152.855 140.402 L 152.837 140.42 L 152.837 140.42 L 152.855 140.402 Z M 152.867 129.202 L 152.885 129.22 L 152.885 129.22 L 152.867 129.202 Z M 164.068 129.212 L 164.085 129.195 L 164.085 129.195 L 164.068 129.212 Z M 164.057 140.413 L 164.04 140.395 L 164.04 140.395 L 164.057 140.413 Z M 166.51 95.595 L 166.528 95.577 L 166.528 95.577 L 166.51 95.595 Z M 166.52 84.395 L 166.538 84.413 L 166.538 84.413 L 166.52 84.395 Z M 177.72 84.405 L 177.702 84.423 L 177.702 84.423 L 177.72 84.405 Z M 177.71 95.605 L 177.692 95.587 L 177.692 95.587 L 177.71 95.605 Z M 90 180 L 90 180.025 L 90.025 180.025 L 90.025 180 L 90 180 Z M 54.93 172.915 L 54.92 172.938 L 54.92 172.938 L 54.93 172.915 Z M 7.092 125.12 L 7.115 125.11 L 7.115 125.11 L 7.092 125.12 Z M 7.088 54.93 L 7.065 54.92 L 7.065 54.92 L 7.088 54.93 Z M 54.9 7.092 L 54.91 7.115 L 54.91 7.115 L 54.9 7.092 Z M 90 0 L 90.025 0 L 90.025 -0.025 L 90 -0.025 L 90 0 Z M 90 10 L 90 10.025 L 90.025 10.025 L 90.025 10 L 90 10 Z M 90 170 L 90.025 170 L 90.025 169.975 L 90 169.975 L 90 170 Z M 123 129.885 L 122.982 129.903 L 123 129.92 L 123.018 129.903 L 123 129.885 Z M 85 91.885 L 84.975 91.885 L 84.975 91.895 L 84.982 91.903 L 85 91.885 Z M 85 45 L 85 44.975 L 84.975 44.975 L 84.975 45 L 85 45 Z M 95 45 L 95.025 45 L 95.025 44.975 L 95 44.975 L 95 45 Z M 95 88.115 L 94.975 88.115 L 94.975 88.125 L 94.982 88.133 L 95 88.115 Z M 129.885 123 L 129.903 123.018 L 129.92 123 L 129.903 122.982 L 129.885 123 Z M 114.01 18.673 L 114.028 18.655 C 112.513 17.133 111.755 15.27 111.755 13.065 L 111.73 13.065 L 111.705 13.065 C 111.705 15.283 112.467 17.159 113.992 18.69 L 114.01 18.673 Z M 111.73 13.065 L 111.755 13.065 C 111.755 10.861 112.516 9.003 114.038 7.488 L 114.02 7.47 L 114.002 7.452 C 112.471 8.977 111.705 10.849 111.705 13.065 L 111.73 13.065 Z M 114.02 7.47 L 114.038 7.488 C 115.559 5.974 117.421 5.218 119.625 5.218 L 119.625 5.193 L 119.625 5.168 C 117.409 5.168 115.534 5.929 114.002 7.452 L 114.02 7.47 Z M 119.625 5.193 L 119.625 5.218 C 121.83 5.218 123.689 5.978 125.202 7.5 L 125.22 7.482 L 125.238 7.465 C 123.715 5.933 121.843 5.168 119.625 5.168 L 119.625 5.193 Z M 125.22 7.482 L 125.202 7.5 C 126.717 9.022 127.475 10.884 127.475 13.087 L 127.5 13.087 L 127.525 13.087 C 127.525 10.871 126.763 8.996 125.238 7.465 L 125.22 7.482 Z M 127.5 13.087 L 127.475 13.087 C 127.475 15.293 126.714 17.151 125.192 18.665 L 125.21 18.682 L 125.228 18.7 C 126.759 17.177 127.525 15.306 127.525 13.087 L 127.5 13.087 Z M 125.21 18.682 L 125.192 18.665 C 123.671 20.18 121.809 20.937 119.605 20.937 L 119.605 20.962 L 119.605 20.987 C 121.821 20.987 123.696 20.225 125.228 18.7 L 125.21 18.682 Z M 119.605 20.962 L 119.605 20.937 C 117.4 20.937 115.541 20.177 114.028 18.655 L 114.01 18.673 L 113.992 18.69 C 115.515 20.222 117.387 20.987 119.605 20.987 L 119.605 20.962 Z M 113.432 172.518 L 113.45 172.5 C 111.937 170.978 111.18 169.116 111.18 166.913 L 111.155 166.913 L 111.13 166.913 C 111.13 169.129 111.892 171.004 113.415 172.535 L 113.432 172.518 Z M 111.155 166.913 L 111.18 166.913 C 111.18 164.707 111.94 162.849 113.46 161.335 L 113.443 161.318 L 113.425 161.3 C 111.895 162.823 111.13 164.694 111.13 166.913 L 111.155 166.913 Z M 113.443 161.318 L 113.46 161.335 C 114.982 159.82 116.845 159.063 119.05 159.063 L 119.05 159.038 L 119.05 159.012 C 116.832 159.012 114.956 159.775 113.425 161.3 L 113.443 161.318 Z M 119.05 159.038 L 119.05 159.063 C 121.254 159.063 123.112 159.823 124.627 161.345 L 124.645 161.327 L 124.663 161.31 C 123.138 159.778 121.266 159.012 119.05 159.012 L 119.05 159.038 Z M 124.645 161.327 L 124.627 161.345 C 126.141 162.867 126.897 164.73 126.897 166.935 L 126.923 166.935 L 126.948 166.935 C 126.948 164.717 126.186 162.841 124.663 161.31 L 124.645 161.327 Z M 126.923 166.935 L 126.897 166.935 C 126.897 169.139 126.137 170.997 124.615 172.512 L 124.633 172.53 L 124.65 172.548 C 126.182 171.023 126.948 169.151 126.948 166.935 L 126.923 166.935 Z M 124.633 172.53 L 124.615 172.512 C 123.095 174.026 121.233 174.782 119.027 174.782 L 119.027 174.807 L 119.027 174.832 C 121.246 174.832 123.12 174.071 124.65 172.548 L 124.633 172.53 Z M 119.027 174.807 L 119.027 174.782 C 116.824 174.782 114.965 174.022 113.45 172.5 L 113.432 172.518 L 113.415 172.535 C 114.94 174.067 116.811 174.832 119.027 174.832 L 119.027 174.807 Z M 153.432 51.365 L 153.45 51.347 C 151.937 49.826 151.18 47.963 151.18 45.758 L 151.155 45.758 L 151.13 45.758 C 151.13 47.976 151.892 49.851 153.415 51.383 L 153.432 51.365 Z M 151.155 45.758 L 151.18 45.758 C 151.18 43.554 151.94 41.695 153.46 40.18 L 153.443 40.163 L 153.425 40.145 C 151.895 41.67 151.13 43.541 151.13 45.758 L 151.155 45.758 Z M 153.443 40.163 L 153.46 40.18 C 154.982 38.667 156.845 37.91 159.05 37.91 L 159.05 37.885 L 159.05 37.86 C 156.832 37.86 154.956 38.622 153.425 40.145 L 153.443 40.163 Z M 159.05 37.885 L 159.05 37.91 C 161.254 37.91 163.112 38.671 164.627 40.193 L 164.645 40.175 L 164.663 40.157 C 163.138 38.626 161.266 37.86 159.05 37.86 L 159.05 37.885 Z M 164.645 40.175 L 164.627 40.193 C 166.141 41.714 166.898 43.576 166.898 45.78 L 166.923 45.78 L 166.948 45.78 C 166.948 43.564 166.186 41.689 164.663 40.157 L 164.645 40.175 Z M 166.923 45.78 L 166.898 45.78 C 166.898 47.984 166.137 49.842 164.615 51.357 L 164.633 51.375 L 164.65 51.393 C 166.182 49.868 166.948 47.996 166.948 45.78 L 166.923 45.78 Z M 164.633 51.375 L 164.615 51.357 C 163.095 52.872 161.233 53.63 159.027 53.63 L 159.027 53.655 L 159.027 53.68 C 161.246 53.68 163.12 52.918 164.65 51.393 L 164.633 51.375 Z M 159.027 53.655 L 159.027 53.63 C 156.824 53.63 154.965 52.869 153.45 51.347 L 153.432 51.365 L 153.415 51.383 C 154.94 52.914 156.811 53.68 159.027 53.68 L 159.027 53.655 Z M 152.855 140.402 L 152.873 140.385 C 151.359 138.863 150.602 137.001 150.602 134.798 L 150.577 134.798 L 150.552 134.798 C 150.552 137.014 151.314 138.889 152.837 140.42 L 152.855 140.402 Z M 150.577 134.798 L 150.602 134.798 C 150.602 132.592 151.363 130.734 152.885 129.22 L 152.867 129.202 L 152.85 129.185 C 151.318 130.708 150.552 132.579 150.552 134.798 L 150.577 134.798 Z M 152.867 129.202 L 152.885 129.22 C 154.407 127.705 156.269 126.948 158.473 126.948 L 158.473 126.923 L 158.473 126.897 C 156.256 126.897 154.381 127.66 152.85 129.185 L 152.867 129.202 Z M 158.473 126.923 L 158.473 126.948 C 160.676 126.948 162.535 127.708 164.05 129.23 L 164.068 129.212 L 164.085 129.195 C 162.56 127.663 160.689 126.897 158.473 126.897 L 158.473 126.923 Z M 164.068 129.212 L 164.05 129.23 C 165.563 130.752 166.32 132.614 166.32 134.818 L 166.345 134.818 L 166.37 134.818 C 166.37 132.601 165.608 130.726 164.085 129.195 L 164.068 129.212 Z M 166.345 134.818 L 166.32 134.818 C 166.32 137.023 165.56 138.881 164.04 140.395 L 164.057 140.413 L 164.075 140.43 C 165.605 138.907 166.37 137.036 166.37 134.818 L 166.345 134.818 Z M 164.057 140.413 L 164.04 140.395 C 162.518 141.91 160.655 142.668 158.45 142.668 L 158.45 142.693 L 158.45 142.718 C 160.668 142.718 162.544 141.955 164.075 140.43 L 164.057 140.413 Z M 158.45 142.693 L 158.45 142.668 C 156.246 142.668 154.388 141.907 152.873 140.385 L 152.855 140.402 L 152.837 140.42 C 154.362 141.952 156.234 142.718 158.45 142.718 L 158.45 142.693 Z M 166.51 95.595 L 166.528 95.577 C 165.013 94.056 164.255 92.194 164.255 89.99 L 164.23 89.99 L 164.205 89.99 C 164.205 92.206 164.967 94.081 166.492 95.613 L 166.51 95.595 Z M 164.23 89.99 L 164.255 89.99 C 164.255 87.785 165.016 85.926 166.538 84.413 L 166.52 84.395 L 166.502 84.377 C 164.971 85.9 164.205 87.772 164.205 89.99 L 164.23 89.99 Z M 166.52 84.395 L 166.538 84.413 C 168.059 82.898 169.922 82.14 172.128 82.14 L 172.128 82.115 L 172.128 82.09 C 169.909 82.09 168.034 82.852 166.502 84.377 L 166.52 84.395 Z M 172.128 82.115 L 172.128 82.14 C 174.331 82.14 176.189 82.901 177.702 84.423 L 177.72 84.405 L 177.738 84.387 C 176.215 82.856 174.344 82.09 172.128 82.09 L 172.128 82.115 Z M 177.72 84.405 L 177.702 84.423 C 179.217 85.944 179.975 87.806 179.975 90.01 L 180 90.01 L 180.025 90.01 C 180.025 87.794 179.263 85.919 177.738 84.387 L 177.72 84.405 Z M 180 90.01 L 179.975 90.01 C 179.975 92.215 179.214 94.074 177.692 95.587 L 177.71 95.605 L 177.728 95.623 C 179.259 94.1 180.025 92.228 180.025 90.01 L 180 90.01 Z M 177.71 95.605 L 177.692 95.587 C 176.171 97.102 174.309 97.86 172.105 97.86 L 172.105 97.885 L 172.105 97.91 C 174.321 97.91 176.196 97.148 177.728 95.623 L 177.71 95.605 Z M 172.105 97.885 L 172.105 97.86 C 169.9 97.86 168.041 97.099 166.528 95.577 L 166.51 95.595 L 166.492 95.613 C 168.015 97.144 169.887 97.91 172.105 97.91 L 172.105 97.885 Z M 90 180 L 90 179.975 C 77.58 179.975 65.893 177.614 54.94 172.892 L 54.93 172.915 L 54.92 172.938 C 65.88 177.663 77.573 180.025 90 180.025 L 90 180 Z M 54.93 172.915 L 54.94 172.892 C 43.988 168.17 34.46 161.762 26.358 153.667 L 26.34 153.685 L 26.322 153.703 C 34.43 161.802 43.962 168.213 54.92 172.938 L 54.93 172.915 Z M 26.34 153.685 L 26.358 153.667 C 18.255 145.573 11.841 136.054 7.115 125.11 L 7.092 125.12 L 7.07 125.13 C 11.797 136.079 18.215 145.604 26.322 153.703 L 26.34 153.685 Z M 7.092 125.12 L 7.115 125.11 C 2.389 114.168 0.025 102.476 0.025 90.033 L 0 90.033 L -0.025 90.033 C -0.025 102.482 2.34 114.182 7.07 125.13 L 7.092 125.12 Z M 0 90.033 L 0.025 90.033 C 0.025 77.591 2.387 65.893 7.11 54.94 L 7.088 54.93 L 7.065 54.92 C 2.338 65.88 -0.025 77.584 -0.025 90.033 L 0 90.033 Z M 7.088 54.93 L 7.11 54.94 C 11.834 43.988 18.245 34.46 26.343 26.358 L 26.325 26.34 L 26.307 26.322 C 18.205 34.43 11.791 43.962 7.065 54.92 L 7.088 54.93 Z M 26.325 26.34 L 26.343 26.358 C 34.44 18.255 43.963 11.841 54.91 7.115 L 54.9 7.092 L 54.89 7.07 C 43.937 11.797 34.41 18.215 26.307 26.322 L 26.325 26.34 Z M 54.9 7.092 L 54.91 7.115 C 65.857 2.389 77.553 0.025 90 0.025 L 90 0 L 90 -0.025 C 77.547 -0.025 65.843 2.34 54.89 7.07 L 54.9 7.092 Z M 90 0 L 89.975 0 L 89.975 10 L 90 10 L 90.025 10 L 90.025 0 L 90 0 Z M 90 10 L 90 9.975 C 67.66 9.975 48.737 17.728 33.232 33.232 L 33.25 33.25 L 33.268 33.268 C 48.763 17.772 67.673 10.025 90 10.025 L 90 10 Z M 33.25 33.25 L 33.232 33.232 C 17.728 48.737 9.975 67.66 9.975 90 L 10 90 L 10.025 90 C 10.025 67.673 17.772 48.763 33.268 33.268 L 33.25 33.25 Z M 10 90 L 9.975 90 C 9.975 112.34 17.728 131.263 33.232 146.768 L 33.25 146.75 L 33.268 146.732 C 17.772 131.237 10.025 112.327 10.025 90 L 10 90 Z M 33.25 146.75 L 33.232 146.768 C 48.737 162.272 67.66 170.025 90 170.025 L 90 170 L 90 169.975 C 67.673 169.975 48.763 162.228 33.268 146.732 L 33.25 146.75 Z M 90 170 L 89.975 170 L 89.975 180 L 90 180 L 90.025 180 L 90.025 170 L 90 170 Z M 123 129.885 L 123.018 129.867 L 85.018 91.867 L 85 91.885 L 84.982 91.903 L 122.982 129.903 L 123 129.885 Z M 85 91.885 L 85.025 91.885 L 85.025 45 L 85 45 L 84.975 45 L 84.975 91.885 L 85 91.885 Z M 85 45 L 85 45.025 L 95 45.025 L 95 45 L 95 44.975 L 85 44.975 L 85 45 Z M 95 45 L 94.975 45 L 94.975 88.115 L 95 88.115 L 95.025 88.115 L 95.025 45 L 95 45 Z M 95 88.115 L 94.982 88.133 L 129.867 123.018 L 129.885 123 L 129.903 122.982 L 95.018 88.097 L 95 88.115 Z M 129.885 123 L 129.867 122.982 L 122.982 129.867 L 123 129.885 L 123.018 129.903 L 129.903 123.018 L 129.885 123 Z" fill="currentColor" fill-rule="nonzero"></path>
</svg>